<?xml version="1.0" encoding="UTF-8" standalone="no"?>
<!-- Created with Inkscape (http://www.inkscape.org/) -->

<svg
   width="710.40002"
   height="560.81689"
   viewBox="0 0 187.96001 148.38281"
   version="1.1"
   id="svg1"
   xml:space="preserve"
   inkscape:version="1.4 (e7c3feb100, 2024-10-09)"
   sodipodi:docname="logo.svg"
   xmlns:inkscape="http://www.inkscape.org/namespaces/inkscape"
   xmlns:sodipodi="http://sodipodi.sourceforge.net/DTD/sodipodi-0.dtd"
   xmlns="http://www.w3.org/2000/svg"
   xmlns:svg="http://www.w3.org/2000/svg"><sodipodi:namedview
     id="namedview1"
     pagecolor="#ffffff"
     bordercolor="#000000"
     borderopacity="0.25"
     inkscape:showpageshadow="2"
     inkscape:pageopacity="0.0"
     inkscape:pagecheckerboard="0"
     inkscape:deskcolor="#d1d1d1"
     inkscape:document-units="mm"
     inkscape:zoom="0.62705822"
     inkscape:cx="450.51638"
     inkscape:cy="372.37371"
     inkscape:window-width="1576"
     inkscape:window-height="852"
     inkscape:window-x="0"
     inkscape:window-y="0"
     inkscape:window-maximized="0"
     inkscape:current-layer="layer1" /><defs
     id="defs1" /><g
     inkscape:label="Layer 1"
     inkscape:groupmode="layer"
     id="layer1"
     transform="translate(-11.020048,-19.058068)"><path
       id="path2"
       style="fill:#2d1c00;fill-opacity:1"
       d="m 104.38234,52.130721 c -5.142047,-0.0062 -10.879827,2.76839 -14.088027,6.81302 -2.76719,3.48864 -3.94166,7.26563 -3.76308,12.10262 0.12782,3.46226 0.71514,5.40682 2.50218,8.2889 2.65589,4.28335 6.47339,7.03233 11.300077,8.13749 2.00243,0.4585 6.50992,0.30265 8.75657,-0.30282 2.19223,-0.5908 5.44566,-2.33103 7.04247,-3.7667 0.73401,-0.65994 1.93599,-2.09042 2.67064,-3.17913 3.3656,-4.9876 4.1504,-10.10971 2.36729,-15.44712 -1.63727,-4.90085 -4.48581,-8.24984 -9.06766,-10.66033 -2.05789,-1.08265 -5.56009,-1.98293 -7.72046,-1.98593 z m -23.204777,28.83752 c -0.51326,0 -1.75587,0.80373 -5.95416,3.85092 -5.87341,4.26301 -16.17348,10.34584 -18.01906,10.70839 12.79393,6.753899 22.81504,9.181879 32.84399,11.473209 H 195.20625 c -2.56131,-0.50786 -7.24326,-2.2693 -11.40292,-4.35219 -4.89346,-2.45034 -10.63205,-6.222969 -15.53393,-10.211779 -1.93963,-1.57834 -3.80358,-3.0927 -4.14239,-3.36569 -0.61566,-0.49604 -0.61733,-0.49544 -2.97191,1.07952 -1.29579,0.86673 -3.92349,2.37259 -5.83892,3.34657 l -3.00033,1.52549 c 8.54792,3.98844 15.34067,5.738449 24.63622,8.031029 -23.62063,-0.28651 -47.02973,-7.084909 -46.89326,-20.742399 -0.002,-3.1e-4 -0.0292,-0.02016 -0.0305,-0.02016 -0.30238,0 -3.08633,1.82415 -5.07411,3.32486 -3.56397,2.6907 -8.78679,6.04129 -12.71705,8.15816 l -2.48047,1.33584 c 13.21406,4.891339 25.61175,7.707979 34.87952,9.993699 -28.5448,2.23381 -63.739377,-10.394609 -63.458647,-24.135469 z m -35.57354,7.67756 c -0.0022,2e-5 -0.01166,0.0071 -0.01396,0.0072 0.06479,0.04242 0.12604,0.07923 0.19069,0.12144 -0.06108,-0.04954 -0.13458,-0.1291 -0.17673,-0.12868 z m -0.02481,0.01241 c -0.34376,0.03676 -2.19375,1.43577 -4.35477,3.29747 -6.59936,5.68526 -12.56177,9.632099 -18.78542,12.434899 -3.02974,1.36443 -5.62465,2.27469 -7.33805,2.61018 h 61.29393 c -16.7203,-2.77558 -30.99952,-8.700259 -30.81569,-18.342549 z m -32.40061,21.724249 c 0.55259,0.0518 89.179147,0.0365 140.118067,0 z m 61.23813,8.41551 c -0.35197,-8.9e-4 -0.76219,0.17589 -1.21853,0.53485 -0.63232,0.49736 -1.07366,0.52917 -7.34322,0.52917 -6.33417,0 -6.69415,-0.0267 -7.14892,-0.52917 -0.60247,-0.66568 -1.89643,-0.70678 -2.08515,-0.0661 -0.07501,0.25466 -0.26247,1.18284 -0.41651,2.06241 -0.15405,0.87956 -0.52157,2.46993 -0.81649,3.53415 -0.57791,2.08548 -0.51224,2.77934 0.30335,3.21583 0.78135,0.41816 1.47299,0.0735 2.32182,-1.15704 1.24238,-1.801 1.6854,-2.07799 3.56412,-2.2288 l 1.70584,-0.13695 0.18138,2.21692 c 0.0997,1.21929 0.14182,4.80062 0.09302,7.95869 l -0.08888,5.74229 -1.01441,0.9281 c -0.9885,0.90495 -1.02395,1.0926 -0.36742,1.94149 0.1836,0.23743 1.32978,0.33073 4.06022,0.33073 3.45128,0 3.85297,-0.0491 4.33307,-0.52917 0.71173,-0.71173 0.67355,-0.90714 -0.33073,-1.6924 l -0.8599,-0.67231 -0.14469,-7.08588 c -0.0795,-3.89723 -0.09169,-7.54503 -0.02739,-8.10596 l 0.11679,-1.01958 1.7942,0.10129 c 1.98427,0.11212 2.70869,0.54121 3.30936,1.95957 0.55172,1.30277 1.03853,1.58081 1.84382,1.05316 0.37235,-0.24397 0.74594,-0.62369 0.83044,-0.84387 0.08449,-0.22018 -0.1537,-1.61266 -0.52917,-3.09387 -0.37546,-1.48121 -0.75819,-3.04931 -0.85059,-3.48506 -0.20473,-0.96605 -0.62882,-1.46095 -1.21543,-1.46244 z m -40.5319,0.008 c -0.35637,0.0252 -0.75221,0.1992 -1.1684,0.52658 -0.63225,0.49736 -1.07317,0.52917 -7.33082,0.52917 -6.80433,0 -7.29309,0.0692 -7.29309,1.03249 0,0.21863 0.35559,0.76501 0.79065,1.21388 l 0.79116,0.81597 0.06873,8.80618 0.06925,8.80618 -0.86248,0.709 c -0.95286,0.78351 -1.23012,2.01766 -0.39429,2.14303 0.32874,0.0493 3.64954,0.27302 8.85734,0.27802 l 8.39483,0.008 0.38861,-0.59532 c 0.21375,-0.32742 0.59621,-1.80196 0.85008,-3.2768 0.43586,-2.53339 0.43606,-2.71975 0.0078,-3.37344 -0.32397,-0.49443 -0.68226,-0.69194 -1.25574,-0.69194 -0.69556,0 -0.87197,0.15696 -1.32395,1.17874 -0.88818,2.00786 -0.85696,1.99626 -5.28856,1.99626 h -3.94963 v -2.48512 c 0,-2.72108 0.05334,-2.81042 1.67535,-2.80242 1.05012,0.005 1.31864,0.18363 1.85673,1.23404 0.49638,0.96896 1.24157,1.29738 2.01073,0.88573 0.75984,-0.40687 0.88649,-1.19904 0.75913,-4.77128 -0.12249,-3.43545 -0.44681,-4.23179 -1.72238,-4.23179 -0.49557,0 -0.73992,0.25681 -1.14618,1.20458 l -0.51625,1.20458 -1.39268,-0.0801 -1.39216,-0.0801 v -2.11667 -2.11666 l 3.27008,-0.0744 c 3.57354,-0.0814 3.79809,-0.009 4.3956,1.42111 0.678,1.62268 2.29769,1.74928 2.68407,0.2098 0.21731,-0.86583 -0.11753,-5.50175 -0.46302,-6.41046 -0.29154,-0.76682 -0.7765,-1.13856 -1.37046,-1.09657 z m 154.396777,0.28112 c -0.36441,0.0417 -0.73088,0.22309 -0.94309,0.52606 -0.37431,0.53438 -0.41286,0.53631 -1.91461,0.0997 -6.57404,-1.91112 -12.76562,4.68264 -9.3922,10.00197 0.93152,1.46884 1.86479,2.18443 4.91185,3.76876 3.03271,1.57688 3.30729,1.83162 3.30729,3.06855 0,1.47995 -0.98757,2.18539 -2.84634,2.03295 -1.56969,-0.12874 -2.43542,-0.75692 -3.26078,-2.36626 -0.76563,-1.49289 -1.98603,-1.64519 -2.58847,-0.32298 -0.41604,0.91315 -0.37657,3.64476 0.0682,4.70927 0.5987,1.43289 2.3306,2.5451 4.79092,3.07733 2.68785,0.58145 6.51283,-0.52412 8.11165,-2.34507 1.13569,-1.29348 2.06923,-3.40743 2.07223,-4.69274 0.004,-1.73293 -0.70338,-3.65346 -1.78387,-4.84311 -0.61271,-0.6746 -2.05384,-1.65891 -3.7698,-2.57452 -2.89988,-1.54733 -3.62954,-2.0874 -3.71554,-2.75074 -0.13204,-1.01884 0.0625,-1.37122 0.9648,-1.74821 1.65243,-0.69043 3.55405,0.0113 4.69222,1.73116 0.50774,0.76723 0.89602,1.07538 1.35444,1.07538 1.20811,0 1.42318,-0.75218 1.27124,-4.44934 -0.0758,-1.84557 -0.25604,-3.50468 -0.40049,-3.68659 -0.20285,-0.25543 -0.56525,-0.35336 -0.92966,-0.31161 z m -136.292967,0.34933 c -0.08183,0.002 -0.16122,0.021 -0.23978,0.0574 -0.24819,0.11498 -0.89762,0.1872 -1.44332,0.1602 -4.34754,-0.2153 -5.11081,-0.16997 -6.29729,0.37362 -2.81865,1.29138 -4.4769,3.71196 -4.4819,6.5412 -0.0049,2.91748 1.48752,4.74623 5.52783,6.77375 2.76936,1.38974 3.46542,2.04181 3.46542,3.24683 0,1.40742 -1.51359,2.27944 -3.35638,1.93373 -0.94709,-0.17767 -1.65791,-0.78662 -3.27319,-2.80345 -1.22234,-1.52621 -2.36626,-0.45168 -2.36626,2.22261 0,2.75204 1.72741,4.77464 4.7625,5.57692 1.86209,0.49223 2.97037,0.50318 4.68963,0.0455 2.57891,-0.68656 4.11239,-1.9969 5.25085,-4.48603 0.90468,-1.97799 0.80347,-3.94414 -0.30851,-5.98723 -0.98023,-1.801 -2.02696,-2.6754 -4.95009,-4.13515 -3.01336,-1.5048 -3.35897,-1.80385 -3.35897,-2.90835 0,-1.08379 0.55737,-1.42718 2.29754,-1.41438 1.58125,0.0116 2.35623,0.42729 3.24786,1.74304 0.83299,1.2292 1.66352,1.44366 2.23191,0.5762 0.32632,-0.49808 0.37127,-1.16089 0.23822,-3.51038 -0.14612,-2.58029 -0.23286,-2.96552 -0.79426,-3.52692 -0.32916,-0.3292 -0.59631,-0.48391 -0.84181,-0.47904 z m 108.979387,0.009 c -0.26153,0.0281 -0.60652,0.20605 -0.94671,0.49868 -0.82154,0.70666 -0.82881,0.67943 0.67851,2.56367 l 0.52917,0.66146 -2.7404,7.9375 c -3.40062,9.85032 -3.12537,9.20044 -4.26227,10.0676 l -0.95343,0.72709 -0.7829,-0.75034 -0.78342,-0.75086 v -8.81187 -8.81186 l 0.79375,-0.70745 c 0.91276,-0.81327 1.0188,-1.53898 0.28216,-1.93322 -0.73872,-0.39535 -7.50021,-0.35823 -7.90185,0.0434 -0.51262,0.51262 -0.36777,1.18959 0.37001,1.72703 0.4645,0.33836 0.76157,0.88256 0.91467,1.67586 0.29824,1.54368 0.30349,14.91177 0.007,16.18971 -0.12967,0.55841 -0.59605,1.33452 -1.06712,1.77457 -0.69373,0.64804 -0.7898,0.8706 -0.56017,1.29966 0.15231,0.28461 0.42674,0.57807 0.6103,0.65216 h 5.1e-4 c 0.18416,0.0739 1.88845,0.14405 3.7884,0.15555 2.57083,0.0155 3.58508,-0.0742 3.96203,-0.34985 0.43425,-0.31753 0.58226,-0.31753 1.0356,0 0.81886,0.5736 6.42164,0.52038 7.07089,-0.0672 0.71995,-0.65154 0.5934,-1.18966 -0.49351,-2.1022 l -0.97669,-0.82062 0.46974,-1.2299 0.46974,-1.23042 h 2.61689 2.61741 l 0.4036,0.78083 c 0.59199,1.1448 0.50362,2.10857 -0.25787,2.8143 -0.76337,0.70746 -0.83304,1.22213 -0.24546,1.80971 0.34101,0.34097 1.12887,0.416 4.38268,0.416 2.18199,0 4.18395,-0.11587 4.4483,-0.25735 0.93626,-0.50107 0.86315,-1.07579 -0.2682,-2.10995 -0.95586,-0.87374 -1.26275,-1.48918 -2.65461,-5.32939 -1.9597,-5.40694 -3.84308,-11.16421 -4.08761,-12.49536 -0.16198,-0.88173 -0.0901,-1.10897 0.56741,-1.79524 0.58898,-0.61477 0.69353,-0.88079 0.47852,-1.22163 -0.53827,-0.85334 -1.05071,-0.98005 -2.52904,-0.6258 -1.34959,0.3234 -3.37616,0.16514 -4.75527,-0.37104 -0.0653,-0.0254 -0.1433,-0.0326 -0.23048,-0.0233 z m -24.97418,0.0295 c -2.86585,-0.0515 -6.08483,1.24844 -8.24188,3.40548 -1.77261,1.77262 -3.20237,4.61446 -3.59719,7.15047 -0.96502,6.1985 3.671,12.62126 9.82524,13.61208 0.80036,0.12886 1.5147,0.24714 1.5875,0.26304 0.0728,0.0159 0.88961,-0.0937 1.81539,-0.24392 1.68496,-0.27341 3.90641,-1.21566 4.47104,-1.896 0.16523,-0.19908 0.38343,-1.45943 0.48473,-2.80138 0.16148,-2.13909 0.12541,-2.50502 -0.29197,-2.96623 -0.67139,-0.74188 -0.94165,-0.67002 -2.12597,0.56327 -1.88107,1.95884 -3.788,2.31473 -6.13503,1.14515 -3.30855,-1.64872 -4.48805,-6.48036 -2.45101,-10.04073 0.98547,-1.72242 2.49233,-2.72693 4.40387,-2.93574 1.79247,-0.1958 2.92796,0.47045 3.7977,2.22881 0.36697,0.7419 0.80283,1.48445 0.96841,1.65003 0.43787,0.43787 1.39324,0.0435 1.52342,-0.62891 0.0615,-0.31773 0.37576,-1.73638 0.69867,-3.15226 0.4642,-2.03549 0.52041,-2.65447 0.26768,-2.95899 -0.48288,-0.58183 -4.10324,-2.01032 -5.79809,-2.28772 -0.39085,-0.064 -0.79311,-0.0991 -1.20251,-0.10645 z m -51.743607,0.1111 c -0.85037,-0.0996 -1.24757,0.14795 -1.62058,0.84491 -0.24862,0.46455 -0.16062,0.6817 0.5886,1.4547 l 0.88056,0.90898 -1.57044,4.68499 c -1.32863,3.96332 -3.89431,11.25129 -4.50929,12.80904 -0.09789,0.24796 -0.58423,0.69056 -1.08055,0.9834 -0.94775,0.55918 -1.20257,1.46755 -0.58498,2.08514 h 5.2e-4 c 0.21335,0.21335 1.41131,0.3173 3.65145,0.3173 2.24014,0 3.43759,-0.10395 3.65094,-0.3173 0.56524,-0.56524 0.35653,-1.47117 -0.47594,-2.06395 -0.86327,-0.6147 -0.93263,-0.94435 -0.51521,-2.4474 l 0.27543,-0.99219 h 2.91146 2.91145 l 0.38343,0.91778 c 0.52603,1.25899 0.48061,2.08728 -0.14572,2.6541 -0.67875,0.61378 -0.68119,1.61999 -0.0052,1.98179 0.32261,0.17264 2.06799,0.25264 4.53202,0.20774 3.79558,-0.0692 4.02812,-0.10356 4.39405,-0.65526 0.36201,-0.54577 0.31746,-0.65 -0.70435,-1.65158 -1.33507,-1.30863 -1.58384,-1.88116 -4.49172,-10.33373 -2.90208,-8.43571 -2.85189,-8.19061 -1.85931,-9.14156 0.91337,-0.87507 0.96145,-1.19532 0.27285,-1.8185 -0.45606,-0.41272 -0.70213,-0.4267 -2.4474,-0.14004 -1.62068,0.26619 -2.18495,0.25361 -3.4246,-0.0765 -0.39995,-0.1065 -0.73405,-0.17866 -1.0175,-0.21188 z m 18.513077,0.27596 c -3.006757,0 -3.571017,0.73613 -1.7632,2.30063 0.3691,0.31942 0.74682,0.98415 0.83922,1.47691 0.0925,0.49276 0.12913,4.49636 0.0811,8.89714 l -0.0873,8.00157 -0.86248,0.70797 c -0.88723,0.72883 -1.098007,1.553 -0.54002,2.11098 0.40087,0.40087 6.63621,0.43756 7.37268,0.0434 0.77883,-0.41682 0.61433,-1.31485 -0.41393,-2.25671 l -0.92604,-0.84801 v -4.41833 c 0,-2.72745 0.0979,-4.38447 0.2558,-4.32997 0.14063,0.0485 2.40681,2.64822 5.03638,5.77691 2.62957,3.1287 5.10401,5.89612 5.49889,6.15001 0.93687,0.60233 1.52386,0.58505 2.17351,-0.0646 0.51036,-0.51041 0.52917,-0.88186 0.52917,-10.48153 v -9.95236 l 1.05885,-0.9679 c 1.00963,-0.92289 1.03976,-0.99551 0.64647,-1.55701 -0.39244,-0.56025 -0.58952,-0.58911 -4.04885,-0.58911 -3.64955,0 -4.27105,0.14519 -4.27105,0.99684 0,0.19895 0.41672,0.7547 0.92604,1.23506 l 0.92604,0.87333 v 4.29018 c 0,2.49676 -0.10185,4.25363 -0.2434,4.20233 -0.13378,-0.0485 -2.16661,-2.41008 -4.51755,-5.24774 -2.35095,-2.83765 -4.56991,-5.42727 -4.93096,-5.75469 -0.56387,-0.51142 -0.9501,-0.59531 -2.73937,-0.59531 z m -16.969507,9.4511 c 0.20918,-0.20918 1.14534,2.01213 1.50844,3.57963 0.16847,0.7273 0.16757,0.7276 -1.31569,0.7276 -1.2655,0 -1.48363,-0.0719 -1.48363,-0.48783 0,-0.59721 0.98594,-3.51446 1.29088,-3.8194 z m 77.179267,0.41961 c 0.23901,-0.0797 1.43413,2.88459 1.43402,3.55689 -6e-5,0.33548 -2.39516,0.49303 -2.70991,0.17828 -0.20595,-0.20594 0.96409,-3.63123 1.27589,-3.73517 z M 90.360463,153.9617 c -0.21545,-0.0274 -0.45605,0.11365 -0.71727,0.4284 -0.2647,0.31897 -1.07275,0.39688 -4.11551,0.39688 -3.58343,0 -3.79565,0.0292 -3.95842,0.54208 -0.09459,0.29802 -0.04663,0.69249 0.10646,0.87695 0.4369,0.52645 0.44999,8.92249 0.01498,9.61905 -0.28917,0.46269 -0.28976,0.63335 -0.0031,0.97875 h 5.2e-4 c 0.29056,0.35011 1.04324,0.41745 4.61419,0.41445 2.3469,-0.002 4.41775,-0.0997 4.60178,-0.21653 0.41696,-0.26467 1.00652,-2.97382 0.77722,-3.57135 -0.26671,-0.69504 -1.06914,-0.51339 -1.5627,0.35398 -0.44779,0.78708 -0.46589,0.7922 -2.81326,0.7922 -2.33424,0 -2.36453,-0.008 -2.49443,-0.68781 -0.26173,-1.36917 0.01255,-1.69344 1.43196,-1.69344 0.88039,0 1.34707,0.12136 1.44487,0.3762 0.20655,0.53828 0.90232,0.74257 1.32757,0.38964 0.4382,-0.36372 0.50493,-3.71116 0.0894,-4.48758 -0.37911,-0.70838 -1.00191,-0.63973 -1.36167,0.14986 -0.26179,0.57457 -0.47175,0.66146 -1.59784,0.66146 h -1.29656 l 0.08216,-0.99218 0.08217,-0.99219 2.04122,-0.077 c 1.96046,-0.074 2.07498,-0.0451 2.88354,0.7276 0.68401,0.65367 0.91457,0.74421 1.22784,0.48421 0.29938,-0.24845 0.34541,-0.67419 0.20618,-1.90479 -0.18472,-1.63276 -0.53732,-2.50847 -1.0113,-2.56884 z m 21.200247,0.69764 c -3.63027,0.23181 -5.89204,3.98261 -3.07733,6.35103 0.44733,0.3764 1.57056,1.02734 2.49597,1.44694 0.92541,0.4196 1.68259,0.92515 1.68259,1.12345 0,1.21699 -2.26124,1.39743 -3.22099,0.25683 -0.34211,-0.40658 -0.77466,-0.83402 -0.96119,-0.9493 -1.13293,-0.70019 -1.60382,2.46942 -0.51418,3.46077 0.32733,0.2978 0.952,0.67256 1.38855,0.83303 h 5.2e-4 c 1.99339,0.73202 5.06551,-0.15979 6.14794,-1.78491 0.74693,-1.12134 0.75668,-2.01361 0.0351,-3.19722 -0.70294,-1.1531 -1.00274,-1.39027 -3.18688,-2.51871 -0.97144,-0.5019 -1.83592,-1.02479 -1.92082,-1.1622 -0.29111,-0.47104 0.67349,-1.08624 1.70326,-1.08624 0.83704,0 1.12558,0.14573 1.59732,0.80822 0.39135,0.5496 0.7572,0.7825 1.14256,0.7276 0.49947,-0.0712 0.57592,-0.27512 0.64492,-1.71824 0.0899,-1.87839 0.0343,-1.93766 -2.32854,-2.46083 -0.56365,-0.1248 -1.11023,-0.16334 -1.62884,-0.13022 z m 11.13421,0.091 c -2.87967,0.0869 -5.66513,2.44462 -5.641,6.1221 0.0167,2.54649 1.30517,4.78214 3.33468,5.78673 2.42483,1.20026 5.52015,0.33665 7.04556,-1.96629 1.68597,-2.54533 1.67324,-4.90765 -0.0403,-7.44089 -1.20947,-1.78804 -2.97114,-2.55379 -4.69894,-2.50165 z m -27.723887,0.0367 c -1.658,0 -1.98213,0.24026 -1.60611,1.19062 0.31241,0.78954 0.2864,8.57855 -0.03255,9.72706 -0.1521,0.54766 -0.20394,1.1132 -0.11524,1.25677 0.09476,0.15333 1.83896,0.26096 4.22765,0.26096 3.250827,0 4.145897,-0.0789 4.461227,-0.39429 0.56666,-0.56665 0.88583,-3.82448 0.40462,-4.12894 -0.50578,-0.32001 -0.64256,-0.23684 -1.3503,0.81907 -0.60976,0.90972 -0.65675,0.92714 -2.661857,1.00304 l -2.0407,0.0775 v -4.19147 c 0,-2.76914 0.10171,-4.2932 0.29972,-4.4912 0.16489,-0.16485 0.22806,-0.48662 0.14056,-0.71469 -0.11969,-0.31192 -0.54789,-0.41444 -1.72702,-0.41444 z m 36.616877,0 c -1.7246,0 -1.99137,0.0623 -1.98437,0.46302 0.005,0.25467 0.18322,0.6942 0.39687,0.97668 0.61496,0.81307 0.55658,8.64482 -0.0723,9.70949 -0.40334,0.68289 -0.4116,0.81047 -0.0661,1.02887 0.21691,0.13714 2.31483,0.25122 4.66173,0.25322 4.96835,0.005 4.91621,0.0304 5.07618,-2.48202 0.0798,-1.25376 0.007,-1.71746 -0.30851,-1.97972 -0.53471,-0.44377 -0.88449,-0.20771 -1.35237,0.91209 l -0.37931,0.90795 h -2.26239 -2.2624 v -4.01423 c 0,-3.33021 0.073,-4.09484 0.42892,-4.48809 0.8312,-0.91846 0.29357,-1.28726 -1.87586,-1.28726 z m -59.309037,0.003 c -3.08696,-0.003 -3.66632,0.28416 -2.90783,1.44177 0.59861,0.91361 0.63116,8.50491 0.03979,9.28677 -0.47994,0.63449 -0.51471,1.35145 -0.07441,1.52911 0.1819,0.0734 1.47629,0.14301 2.87682,0.15451 3.98083,0.0327 5.94332,-0.90921 7.2161,-3.46335 1.14294,-2.29358 0.85495,-4.60393 -0.817,-6.55722 -1.53666,-1.79525 -3.10761,-2.38859 -6.33347,-2.39159 z m 50.361787,2.39314 c 0.59393,-0.0238 1.18918,0.10676 1.60558,0.39842 1.94304,1.36096 1.80669,5.91525 -0.20722,6.92154 -1.49895,0.74898 -2.92944,0.21923 -3.699,-1.37046 -0.89539,-1.84964 -0.56227,-4.42944 0.70073,-5.42292 0.41299,-0.32486 1.00597,-0.50282 1.59991,-0.52658 z m -49.930807,0.25011 0.99219,0.001 c 1.84738,0.002 3.50573,1.67605 3.50573,3.53932 0,1.3343 -0.81899,2.84702 -1.75235,3.23701 -0.48211,0.20143 -1.29727,0.36639 -1.81126,0.36639 h -0.93431 v -3.57188 z" /><path
       style="fill:#cf8a30;fill-opacity:1"
       d="m 40.333903,165.76489 c -0.21403,-0.55775 0.23065,-1.60591 1.15924,-2.73245 0.93902,-1.13919 0.97589,-1.36629 0.22183,-1.36629 -0.69342,0 -4.89691,2.09246 -6.46339,3.21742 -1.2621,0.90637 -1.96486,0.8589 -1.96486,-0.13271 0,-0.63745 1.67329,-2.42262 2.87224,-3.06428 0.31204,-0.167 0.56734,-0.40158 0.56734,-0.5213 0,-0.11972 -0.70563,-0.6532 -1.56806,-1.18553 -2.51047,-1.54955 -4.62591,-5.03161 -3.71998,-6.12318 0.64356,-0.77544 1.35449,-0.32643 2.52049,1.59187 1.31085,2.15662 2.88406,3.38279 4.89299,3.81362 2.85777,0.61289 3.43266,0.18946 2.22309,-1.63736 -0.48477,-0.73213 -0.7465,-1.48315 -0.75843,-2.17626 -0.0164,-0.95149 0.052,-1.06647 0.67751,-1.13898 0.61796,-0.0716 0.81436,0.13539 1.75709,1.85209 1.77545,3.23304 0.8598,2.97921 11.06446,3.06733 8.46276,0.0731 8.84385,0.098 9.11001,0.59531 0.18576,0.34711 0.19103,0.68113 0.0159,1.00837 -0.35516,0.66363 -2.59536,0.83359 -10.98708,0.83359 h -6.65259 l -0.99642,1.3066 c -1.20549,1.58073 -2.94682,3.19132 -3.45039,3.19132 -0.2023,0 -0.43674,-0.17963 -0.52099,-0.39918 z m 124.760307,-1.90156 -2.21808,-2.32947 h -8.37232 c -4.60477,0 -8.52114,-0.0963 -8.70304,-0.21405 -0.51006,-0.33012 -0.39462,-1.45293 0.18105,-1.76102 0.32169,-0.17217 3.60612,-0.27389 8.84324,-0.27389 h 8.33147 l 0.81443,-0.6853 c 0.44794,-0.37692 1.23489,-1.43715 1.74878,-2.35606 1.07531,-1.92284 1.47337,-2.32478 2.07406,-2.09427 0.72458,0.27805 0.51416,1.72039 -0.49563,3.39731 -0.50932,0.84582 -0.92604,1.58295 -0.92604,1.63808 0,0.0551 0.80367,0.10015 1.78593,0.10003 3.21021,-3.7e-4 5.47595,-1.46632 7.0322,-4.54987 0.44653,-0.88475 0.72198,-1.13846 1.23603,-1.13846 0.57104,0 0.67253,0.13308 0.74247,0.97359 0.15155,1.82141 -1.84362,4.58031 -4.17107,5.76768 -0.58812,0.30004 -1.06931,0.59898 -1.06931,0.66431 0,0.0653 0.62507,0.51865 1.38906,1.00739 2.10951,1.34949 3.05219,3.62557 1.50159,3.62557 -0.31105,0 -0.9994,-0.34114 -1.52966,-0.75809 -2.32282,-1.82644 -6.65266,-3.60235 -6.65266,-2.72863 0,0.1196 0.35388,0.68515 0.78639,1.25677 0.88716,1.17251 1.0421,2.34544 0.34515,2.61288 -0.34016,0.13054 -1.01925,-0.41661 -2.67404,-2.1545 z m -144.371967,-2.4118 c -0.97626,-0.23012 -1.13072,-0.84373 -0.38298,-1.52145 0.49112,-0.44512 1.04915,-0.52423 4.22348,-0.59869 3.4227,-0.0803 3.69322,-0.0502 4.21247,0.46908 0.44268,0.44269 0.49828,0.66067 0.27493,1.07799 -0.22856,0.42707 -0.55756,0.5234 -1.792,0.52469 -0.83163,8.7e-4 -2.46455,0.054 -3.62871,0.11815 -1.16417,0.0641 -2.4724,0.0327 -2.90719,-0.0698 z m 159.486867,-5.8e-4 c -0.87305,-0.1242 -1.07381,-1.0985 -0.34753,-1.68661 0.50462,-0.40861 1.10673,-0.47944 4.07578,-0.47944 2.72479,0 3.61179,0.0897 4.07173,0.41188 0.64252,0.45004 0.77862,1.29119 0.2607,1.61128 -0.31609,0.19535 -6.87462,0.31162 -8.06068,0.14289 z M 54.075933,85.844651 c -0.52865,-0.52864 -0.13226,-1.3818 0.71582,-1.54068 0.32322,-0.0606 2.49267,-0.54037 4.82101,-1.06625 6.9919,-1.5792 12.11026,-2.54696 12.61808,-2.38579 0.95574,0.30334 0.54827,1.1096 -0.77798,1.53938 -2.51468,0.81491 -15.57083,3.86859 -16.54032,3.86859 -0.23175,0 -0.60822,-0.18686 -0.83661,-0.41525 z m 93.510777,-1.02535 c -5.16505,-1.18091 -9.93777,-2.44349 -10.80139,-2.85741 -0.38939,-0.18663 -0.70798,-0.51631 -0.70798,-0.73263 0,-0.66096 2.71257,-0.38117 8.88773,0.91675 6.86372,1.44264 8.4121,1.85346 8.92725,2.36861 0.32531,0.32531 0.33518,0.46886 0.0554,0.80596 -0.50561,0.60923 -2.0289,0.48919 -6.36102,-0.50128 z m -93.860927,-5.87837 c -0.1819,-0.0734 -0.33073,-0.41641 -0.33073,-0.76225 0,-0.50336 0.19792,-0.68135 0.99219,-0.89232 2.22299,-0.59046 21.6485,-1.50418 22.20256,-1.04435 1.13542,0.94232 0.062,1.19013 -7.84154,1.81023 -3.784,0.29688 -8.28045,0.65583 -9.99212,0.79766 -3.36152,0.27854 -4.51397,0.2994 -5.03036,0.091 z m 95.713007,-0.007 c -0.65484,-0.0492 -3.15515,-0.26949 -5.55625,-0.48963 -2.40109,-0.22013 -5.8539,-0.51653 -7.67291,-0.65866 -4.31919,-0.3375 -4.55275,-0.39665 -4.44895,-1.12662 0.0819,-0.57588 0.14936,-0.5854 3.91978,-0.55324 3.27255,0.0279 10.14197,0.46766 16.34044,1.04602 1.88581,0.17595 2.59868,0.65322 2.17056,1.45317 -0.28087,0.5248 -1.25025,0.5919 -4.75267,0.32896 z m -79.374987,-5.64591 c -3.1287,-0.25896 -7.47448,-0.60833 -9.65729,-0.77636 -8.71177,-0.67063 -13.24504,-1.13637 -13.5599,-1.3931 -0.45576,-0.37162 -0.41444,-1.12894 0.0842,-1.54276 0.34163,-0.28352 1.17107,-0.26479 4.69636,0.10607 2.35479,0.24773 8.09145,0.74478 12.74811,1.10456 13.52586,1.04504 17.06563,1.50142 17.06563,2.20031 0,0.97888 -2.41736,1.04289 -11.37708,0.30128 z m 57.083847,0.39113 c -0.42516,-0.44529 -0.16594,-1.1261 0.52917,-1.38979 0.40018,-0.15181 1.62057,-0.34701 2.71198,-0.43377 1.0914,-0.0868 3.29406,-0.27159 4.89479,-0.41074 1.60073,-0.13914 6.1251,-0.49579 10.05416,-0.79254 3.92906,-0.29676 8.84912,-0.72179 10.93346,-0.94452 2.08434,-0.22272 4.01911,-0.33215 4.29948,-0.24316 0.73366,0.23285 0.67547,1.39244 -0.0855,1.70454 -0.64309,0.26374 -10.15089,1.15793 -16.99948,1.59876 -2.32833,0.14987 -5.66208,0.39031 -7.40833,0.53431 -5.53959,0.45679 -8.72504,0.59125 -8.92969,0.37691 z m -49.940097,-4.12411 c -0.65485,-0.134 -2.44078,-0.48437 -3.96875,-0.77859 -2.4104,-0.46414 -15.1678,-3.45238 -18.03518,-4.22448 -1.32096,-0.3557 -1.79374,-1.17904 -1.08437,-1.88842 0.50727,-0.50727 0.58498,-0.49415 7.2777,1.22887 3.72073,0.95789 8.53234,2.0978 10.69247,2.53313 9.02227,1.81826 9.88215,2.09012 9.52824,3.01241 -0.18343,0.478 -2.36353,0.53587 -4.41011,0.11708 z m 49.675517,0.15177 c -0.39396,-0.40547 -0.18427,-0.90322 0.52916,-1.25612 0.96542,-0.47756 3.86586,-1.1987 11.84011,-2.94383 3.63802,-0.79617 8.09987,-1.81034 9.91523,-2.25371 3.85188,-0.94076 4.39471,-0.9766 4.74958,-0.31352 0.64923,1.2131 -0.60452,1.63607 -11.88669,4.01015 -2.69213,0.5665 -6.50213,1.39688 -8.46667,1.84529 -3.91147,0.8928 -6.37276,1.2287 -6.68072,0.91174 z m -50.072397,-4.77963 c -1.74625,-0.66197 -4.84187,-1.79522 -6.87916,-2.51834 -6.04856,-2.1469 -12.51186,-4.76525 -13.08815,-5.30215 -0.64236,-0.59844 -0.68367,-1.08849 -0.13047,-1.5476 0.4882,-0.40517 0.78684,-0.31765 5.34724,1.56704 1.78261,0.73671 5.83074,2.3063 8.99583,3.48797 9.79973,3.65871 10.88721,4.21618 10.09251,5.17374 -0.44739,0.53907 -0.86266,0.45668 -4.3378,-0.86066 z m 50.005197,0.78828 c -0.40457,-0.40458 -0.4012,-0.46842 0.0473,-0.89316 0.47339,-0.44837 5.82423,-2.59094 13.18297,-5.27871 2.03729,-0.74412 5.01385,-1.90006 6.61458,-2.56876 3.14866,-1.31534 4.52512,-1.54583 4.97959,-0.83385 0.47671,0.74684 -0.178,1.16839 -4.40596,2.83689 -6.69587,2.64241 -19.19525,7.17331 -19.789,7.17331 -0.10654,0 -0.38978,-0.19607 -0.62943,-0.43572 z m -1.54235,-3.18025 c -0.097,-0.097 -0.17639,-0.39615 -0.17639,-0.66475 0,-0.66644 1.61545,-1.65532 8.99583,-5.50668 3.41974,-1.78455 7.70304,-4.09266 9.51844,-5.12914 1.8154,-1.03647 3.50041,-1.96566 3.74447,-2.06485 0.69913,-0.28415 1.39596,0.38031 1.20341,1.14749 -0.12998,0.51788 -1.1621,1.20334 -4.99995,3.32057 -5.32545,2.93791 -17.38042,9.07375 -17.82701,9.07375 -0.15533,0 -0.36179,-0.0794 -0.4588,-0.17639 z m -46.610757,-1.36246 c -1.30969,-0.69526 -4.28625,-2.25651 -6.61459,-3.46944 -8.65859,-4.51063 -12.23812,-6.54671 -12.55704,-7.14262 -0.25906,-0.48405 0.29385,-1.60742 0.79114,-1.60742 0.13345,0 1.76381,0.87322 3.62302,1.94048 1.85921,1.06727 5.7021,3.16755 8.53976,4.66728 9.0003,4.75675 10.29911,5.60146 9.96227,6.47926 -0.26234,0.68363 -1.25638,0.45333 -3.74456,-0.86754 z m 2.8642,-3.02521 c -0.89454,-0.61847 -2.67884,-1.89346 -3.96511,-2.83333 -1.28627,-0.93987 -4.77946,-3.48678 -7.76263,-5.6598 -7.25635,-5.285713 -8.30101,-6.317221 -7.35542,-7.262811 0.60737,-0.607371 1.23565,-0.303847 4.13495,1.997604 1.60407,1.273307 6.31864,4.848577 10.47681,7.945037 7.4559,5.55217 8.28466,6.33862 7.14181,6.77718 -0.73591,0.28239 -1.0119,0.18277 -2.67041,-0.96388 z m 41.964257,0.70542 c -0.24722,-0.29789 -0.27002,-0.54651 -0.0789,-0.85989 0.26957,-0.4419 2.66448,-2.34977 5.38893,-4.29302 4.52964,-3.23083 6.02852,-4.33152 9.13721,-6.70981 1.88677,-1.443474 4.05463,-3.148518 4.81747,-3.788993 1.65209,-1.387086 2.58177,-1.465962 2.58177,-0.21904 0,0.625106 -0.31138,1.036288 -1.6029,2.116666 -2.73568,2.288447 -7.48968,5.875567 -11.49397,8.672767 -2.11005,1.47398 -4.71458,3.31455 -5.78784,4.09017 -2.10767,1.52315 -2.43061,1.63122 -2.96182,0.99115 z m -38.451247,-2.78181 c -0.38808,-0.30527 -2.83832,-2.89488 -5.44497,-5.75469 -2.60665,-2.85981 -6.35396,-6.926059 -8.32737,-9.036111 -1.9734,-2.110052 -3.66018,-4.105895 -3.74838,-4.435206 -0.18833,-0.703106 0.29121,-1.385627 0.97354,-1.385627 0.28449,0 1.91896,1.599332 4.0025,3.916468 1.9369,2.154057 5.82945,6.410541 8.65012,9.458856 6.13624,6.63147 6.08613,6.56462 5.44871,7.26895 -0.5902,0.65217 -0.68611,0.65016 -1.55415,-0.0326 z m 36.098027,-0.0948 c -0.40297,-0.48554 -0.33073,-0.59945 2.09151,-3.29782 7.87236,-8.769782 15.95513,-17.216114 16.47654,-17.217643 0.7099,-0.0021 1.08609,0.93122 0.67964,1.686121 -0.49526,0.919831 -8.40404,9.448432 -16.7751,18.089782 -1.12915,1.16561 -1.92216,1.4028 -2.47259,0.73956 z m -32.714987,-2.7239 c -0.43364,-0.29228 -4.249,-5.63514 -7.69514,-10.775937 -1.66038,-2.476879 -3.60736,-5.336853 -4.32661,-6.355499 -1.33142,-1.885606 -1.51417,-2.645803 -0.75103,-3.12394 0.71228,-0.446268 1.19083,-0.04645 2.69096,2.248239 0.79052,1.20924 2.21517,3.389243 3.16588,4.844451 1.76411,2.700256 5.98662,8.911826 7.39799,10.882916 0.47485,0.66315 0.748,1.33875 0.69424,1.71709 -0.0912,0.64177 -0.65723,0.91254 -1.17629,0.56268 z m 30.464067,-0.22824 c -0.22249,-0.2225 -0.40453,-0.47084 -0.40453,-0.55187 0,-0.33559 1.92604,-3.30516 7.25902,-11.191951 4.72882,-6.993329 5.7462,-8.347702 6.32282,-8.417204 0.55003,-0.0663 0.72129,0.053 0.85799,0.597672 0.144,0.573725 -0.59767,1.8322 -4.72668,8.02033 -5.46743,8.194023 -7.89264,11.559423 -8.49724,11.791433 -0.22377,0.0859 -0.58889,-0.0259 -0.81138,-0.24841 z m -26.956927,-2.03856 c -0.22555,-0.1719 -2.39486,-4.30115 -4.8207,-9.176094 -6.56158,-13.186147 -6.62498,-13.338955 -5.81356,-14.012379 0.85803,-0.712097 1.34002,2.31e-4 4.69297,6.935602 7.57407,15.666491 7.72564,16.038081 6.70207,16.430851 -0.19288,0.074 -0.53524,-0.006 -0.76078,-0.17798 z m 23.575827,0.0559 c -0.25466,-0.14434 -0.46302,-0.44104 -0.46302,-0.65934 0,-0.21829 1.59209,-3.69495 3.53797,-7.725912 1.94588,-4.030958 4.22422,-8.876826 5.06297,-10.768597 1.9679,-4.438485 2.41548,-4.953077 3.42769,-3.94087 0.55221,0.552214 0.56015,0.529589 -2.49838,7.11587 -3.97938,8.569266 -7.51903,15.528429 -8.08852,15.902529 -0.35914,0.23593 -0.65624,0.2591 -0.97871,0.0763 z m -3.89259,-2.06951 c -0.29198,-0.54558 -0.26357,-0.65538 3.46176,-13.380172 1.02247,-3.4925 2.06686,-6.885781 2.32085,-7.540625 0.50165,-1.29333 1.26443,-1.668119 1.88157,-0.924507 0.29797,0.359035 0.17852,1.039535 -0.78019,4.444538 -2.02534,7.19337 -5.17206,17.018236 -5.63068,17.580486 -0.39391,0.48291 -0.94063,0.40451 -1.25331,-0.17972 z m -16.069017,-0.0721 c -0.6531,-0.83091 -6.7506,-20.419412 -6.64358,-21.342843 0.0907,-0.782433 0.98839,-1.091642 1.47324,-0.507441 0.30149,0.363282 2.42311,6.898085 4.57726,14.098451 0.69657,2.328334 1.46313,4.79271 1.70345,5.476393 0.54704,1.55624 0.44739,2.43494 -0.28805,2.54002 -0.30378,0.0434 -0.67382,-0.0757 -0.82232,-0.26458 z m 3.94493,-0.80652 c -0.14995,-0.1819 -0.46732,-1.69995 -0.70527,-3.373438 -0.23796,-1.673489 -0.72003,-4.650052 -1.07128,-6.614583 -0.35124,-1.964531 -0.95908,-5.80058 -1.35075,-8.524552 -0.58087,-4.039813 -0.65015,-5.027352 -0.37589,-5.357813 0.47464,-0.57191 0.99116,-0.503148 1.42855,0.190178 0.20655,0.327422 0.69373,2.738438 1.08261,5.357813 0.38889,2.619375 1.00289,6.667499 1.36445,8.995833 1.190257,7.664892 1.299497,8.771502 0.912027,9.238382 -0.4181,0.50378 -0.913807,0.53781 -1.284447,0.0882 z m 8.278117,-0.0331 c -0.44611,-0.32621 -0.41396,-0.74361 0.64624,-8.39027 0.61363,-4.42584 1.33488,-9.630863 1.60277,-11.566717 0.50955,-3.68221 0.78226,-4.362661 1.69609,-4.232095 0.50791,0.07257 0.54928,0.238461 0.51449,2.063289 -0.0419,2.197311 -2.14266,17.598132 -2.8966,21.235013 -0.19435,0.93751 -0.92759,1.3554 -1.56299,0.89078 z m -4.21937,-0.50305 c -0.36725,-0.5605 -0.40809,-2.245358 -0.34759,-14.341284 0.0636,-12.722231 0.10178,-13.727133 0.53157,-13.99819 0.33768,-0.212972 0.58835,-0.212972 0.92604,0 0.4298,0.271069 0.46758,1.267588 0.52657,13.889271 0.0646,13.825103 0.013,14.678713 -0.90658,14.981843 -0.17263,0.0569 -0.50113,-0.18233 -0.73001,-0.53164 z"
       id="path1"
       sodipodi:nodetypes="ssssssssssssssssssscssssscsssscsssssssssssssssssssssssscssssssssscssssssssssssccssssscsssssssssssssssssssscsssssssssssssssssssssssssssssscssscssssssssssssssssssssssssssssssscccssssssscccssssssscsssssssssssssssssssssssscssssssssssssssssssssscssssssssssssssssssssssssscssss" /><path
       id="rect2"
       style="fill:#cf8a30;stroke-width:0.841509"
       d="m 81.177563,80.968241 c -0.28073,13.74086 34.913847,26.369279 63.458647,24.135469 -15.85236,-3.90969 -40.84425,-9.323649 -63.458647,-24.135469 z m 48.877107,1.22008 c -0.28073,13.74086 23.20496,20.578009 46.8974,20.865389 -15.85235,-3.909699 -24.283,-6.053559 -46.8974,-20.865389 z m -84.476487,6.45697 c -0.19716,9.65011 14.08877,15.578619 30.81672,18.355469 h -63.74546 c -2.15345,0 -2.19152,3.3817 0,3.3817 H 197.1219 c 2.41922,0 2.5349,-3.3817 0,-3.3817 H 90.048333 c -12.87731,-2.94209 -25.71972,-6.07444 -44.47015,-18.355469 z" /></g></svg>
