<?xml version="1.0" encoding="UTF-8" standalone="no"?>
<!-- Created with Inkscape (http://www.inkscape.org/) -->

<svg
   width="1517.9734"
   height="345.28912"
   viewBox="0 0 401.63047 91.357751"
   version="1.1"
   id="svg1"
   xml:space="preserve"
   inkscape:version="1.4 (e7c3feb100, 2024-10-09)"
   sodipodi:docname="logo.svg"
   xmlns:inkscape="http://www.inkscape.org/namespaces/inkscape"
   xmlns:sodipodi="http://sodipodi.sourceforge.net/DTD/sodipodi-0.dtd"
   xmlns="http://www.w3.org/2000/svg"
   xmlns:svg="http://www.w3.org/2000/svg"><sodipodi:namedview
     id="namedview1"
     pagecolor="#ffffff"
     bordercolor="#000000"
     borderopacity="0.25"
     inkscape:showpageshadow="2"
     inkscape:pageopacity="0.0"
     inkscape:pagecheckerboard="0"
     inkscape:deskcolor="#d1d1d1"
     inkscape:document-units="mm"
     inkscape:zoom="0.62705822"
     inkscape:cx="975.18856"
     inkscape:cy="356.42623"
     inkscape:window-width="1576"
     inkscape:window-height="852"
     inkscape:window-x="0"
     inkscape:window-y="0"
     inkscape:window-maximized="0"
     inkscape:current-layer="layer1" /><defs
     id="defs1" /><g
     inkscape:label="Layer 1"
     inkscape:groupmode="layer"
     id="layer1"
     transform="translate(-11.020048,-19.058068)"><path
       id="path2"
       style="fill:#2d1c00;fill-opacity:1"
       d="m 104.38234,52.130721 c -5.142047,-0.0062 -10.879827,2.76839 -14.088027,6.81302 -2.76719,3.48864 -3.94166,7.26563 -3.76308,12.10262 0.12782,3.46226 0.71514,5.40682 2.50218,8.2889 2.65589,4.28335 6.47339,7.03233 11.300077,8.13749 2.00243,0.4585 6.50992,0.30265 8.75657,-0.30282 2.19223,-0.5908 5.44566,-2.33103 7.04247,-3.7667 0.73401,-0.65994 1.93599,-2.09042 2.67064,-3.17913 3.3656,-4.9876 4.1504,-10.10971 2.36729,-15.44712 -1.63727,-4.90085 -4.48581,-8.24984 -9.06766,-10.66033 -2.05789,-1.08265 -5.56009,-1.98293 -7.72046,-1.98593 z m -23.204777,28.83752 c -0.51326,0 -1.75587,0.80373 -5.95416,3.85092 -5.87341,4.26301 -16.17348,10.34584 -18.01906,10.70839 12.79393,6.753899 22.81504,9.181879 32.84399,11.473209 H 195.20625 c -2.56131,-0.50786 -7.24326,-2.2693 -11.40292,-4.35219 -4.89346,-2.45034 -10.63205,-6.222969 -15.53393,-10.211779 -1.93963,-1.57834 -3.80358,-3.0927 -4.14239,-3.36569 -0.61566,-0.49604 -0.61733,-0.49544 -2.97191,1.07952 -1.29579,0.86673 -3.92349,2.37259 -5.83892,3.34657 l -3.00033,1.52549 c 8.54792,3.98844 15.34067,5.738449 24.63622,8.031029 -23.62063,-0.28651 -47.02973,-7.084909 -46.89326,-20.742399 -0.002,-3.1e-4 -0.0292,-0.02016 -0.0305,-0.02016 -0.30238,0 -3.08633,1.82415 -5.07411,3.32486 -3.56397,2.6907 -8.78679,6.04129 -12.71705,8.15816 l -2.48047,1.33584 c 13.21406,4.891339 25.61175,7.707979 34.87952,9.993699 -28.5448,2.23381 -63.739377,-10.394609 -63.458647,-24.135469 z m -35.57354,7.67756 c -0.0022,2e-5 -0.01166,0.0071 -0.01396,0.0072 0.06479,0.04242 0.12604,0.07923 0.19069,0.12144 -0.06108,-0.04954 -0.13458,-0.1291 -0.17673,-0.12868 z m -0.02481,0.01241 c -0.34376,0.03676 -2.19375,1.43577 -4.35477,3.29747 -6.59936,5.68526 -12.56177,9.632099 -18.78542,12.434899 -3.02974,1.36443 -5.62465,2.27469 -7.33805,2.61018 h 61.29393 c -16.7203,-2.77558 -30.99952,-8.700259 -30.81569,-18.342549 z m -32.40061,21.724249 c 0.55259,0.0518 89.179147,0.0365 140.118067,0 z"
       sodipodi:nodetypes="cssssssssscsscccssssccccsscccsscccccccscccccc" /><path
       style="fill:#cf8a30;fill-opacity:1"
       d="m 54.075933,85.844651 c -0.52865,-0.52864 -0.13226,-1.3818 0.71582,-1.54068 0.32322,-0.0606 2.49267,-0.54037 4.82101,-1.06625 6.9919,-1.5792 12.11026,-2.54696 12.61808,-2.38579 0.95574,0.30334 0.54827,1.1096 -0.77798,1.53938 -2.51468,0.81491 -15.57083,3.86859 -16.54032,3.86859 -0.23175,0 -0.60822,-0.18686 -0.83661,-0.41525 z m 93.510777,-1.02535 c -5.16505,-1.18091 -9.93777,-2.44349 -10.80139,-2.85741 -0.38939,-0.18663 -0.70798,-0.51631 -0.70798,-0.73263 0,-0.66096 2.71257,-0.38117 8.88773,0.91675 6.86372,1.44264 8.4121,1.85346 8.92725,2.36861 0.32531,0.32531 0.33518,0.46886 0.0554,0.80596 -0.50561,0.60923 -2.0289,0.48919 -6.36102,-0.50128 z m -93.860927,-5.87837 c -0.1819,-0.0734 -0.33073,-0.41641 -0.33073,-0.76225 0,-0.50336 0.19792,-0.68135 0.99219,-0.89232 2.22299,-0.59046 21.6485,-1.50418 22.20256,-1.04435 1.13542,0.94232 0.062,1.19013 -7.84154,1.81023 -3.784,0.29688 -8.28045,0.65583 -9.99212,0.79766 -3.36152,0.27854 -4.51397,0.2994 -5.03036,0.091 z m 95.713007,-0.007 c -0.65484,-0.0492 -3.15515,-0.26949 -5.55625,-0.48963 -2.40109,-0.22013 -5.8539,-0.51653 -7.67291,-0.65866 -4.31919,-0.3375 -4.55275,-0.39665 -4.44895,-1.12662 0.0819,-0.57588 0.14936,-0.5854 3.91978,-0.55324 3.27255,0.0279 10.14197,0.46766 16.34044,1.04602 1.88581,0.17595 2.59868,0.65322 2.17056,1.45317 -0.28087,0.5248 -1.25025,0.5919 -4.75267,0.32896 z m -79.374987,-5.64591 c -3.1287,-0.25896 -7.47448,-0.60833 -9.65729,-0.77636 -8.71177,-0.67063 -13.24504,-1.13637 -13.5599,-1.3931 -0.45576,-0.37162 -0.41444,-1.12894 0.0842,-1.54276 0.34163,-0.28352 1.17107,-0.26479 4.69636,0.10607 2.35479,0.24773 8.09145,0.74478 12.74811,1.10456 13.52586,1.04504 17.06563,1.50142 17.06563,2.20031 0,0.97888 -2.41736,1.04289 -11.37708,0.30128 z m 57.083847,0.39113 c -0.42516,-0.44529 -0.16594,-1.1261 0.52917,-1.38979 0.40018,-0.15181 1.62057,-0.34701 2.71198,-0.43377 1.0914,-0.0868 3.29406,-0.27159 4.89479,-0.41074 1.60073,-0.13914 6.1251,-0.49579 10.05416,-0.79254 3.92906,-0.29676 8.84912,-0.72179 10.93346,-0.94452 2.08434,-0.22272 4.01911,-0.33215 4.29948,-0.24316 0.73366,0.23285 0.67547,1.39244 -0.0855,1.70454 -0.64309,0.26374 -10.15089,1.15793 -16.99948,1.59876 -2.32833,0.14987 -5.66208,0.39031 -7.40833,0.53431 -5.53959,0.45679 -8.72504,0.59125 -8.92969,0.37691 z m -49.940097,-4.12411 c -0.65485,-0.134 -2.44078,-0.48437 -3.96875,-0.77859 -2.4104,-0.46414 -15.1678,-3.45238 -18.03518,-4.22448 -1.32096,-0.3557 -1.79374,-1.17904 -1.08437,-1.88842 0.50727,-0.50727 0.58498,-0.49415 7.2777,1.22887 3.72073,0.95789 8.53234,2.0978 10.69247,2.53313 9.02227,1.81826 9.88215,2.09012 9.52824,3.01241 -0.18343,0.478 -2.36353,0.53587 -4.41011,0.11708 z m 49.675517,0.15177 c -0.39396,-0.40547 -0.18427,-0.90322 0.52916,-1.25612 0.96542,-0.47756 3.86586,-1.1987 11.84011,-2.94383 3.63802,-0.79617 8.09987,-1.81034 9.91523,-2.25371 3.85188,-0.94076 4.39471,-0.9766 4.74958,-0.31352 0.64923,1.2131 -0.60452,1.63607 -11.88669,4.01015 -2.69213,0.5665 -6.50213,1.39688 -8.46667,1.84529 -3.91147,0.8928 -6.37276,1.2287 -6.68072,0.91174 z m -50.072397,-4.77963 c -1.74625,-0.66197 -4.84187,-1.79522 -6.87916,-2.51834 -6.04856,-2.1469 -12.51186,-4.76525 -13.08815,-5.30215 -0.64236,-0.59844 -0.68367,-1.08849 -0.13047,-1.5476 0.4882,-0.40517 0.78684,-0.31765 5.34724,1.56704 1.78261,0.73671 5.83074,2.3063 8.99583,3.48797 9.79973,3.65871 10.88721,4.21618 10.09251,5.17374 -0.44739,0.53907 -0.86266,0.45668 -4.3378,-0.86066 z m 50.005197,0.78828 c -0.40457,-0.40458 -0.4012,-0.46842 0.0473,-0.89316 0.47339,-0.44837 5.82423,-2.59094 13.18297,-5.27871 2.03729,-0.74412 5.01385,-1.90006 6.61458,-2.56876 3.14866,-1.31534 4.52512,-1.54583 4.97959,-0.83385 0.47671,0.74684 -0.178,1.16839 -4.40596,2.83689 -6.69587,2.64241 -19.19525,7.17331 -19.789,7.17331 -0.10654,0 -0.38978,-0.19607 -0.62943,-0.43572 z m -1.54235,-3.18025 c -0.097,-0.097 -0.17639,-0.39615 -0.17639,-0.66475 0,-0.66644 1.61545,-1.65532 8.99583,-5.50668 3.41974,-1.78455 7.70304,-4.09266 9.51844,-5.12914 1.8154,-1.03647 3.50041,-1.96566 3.74447,-2.06485 0.69913,-0.28415 1.39596,0.38031 1.20341,1.14749 -0.12998,0.51788 -1.1621,1.20334 -4.99995,3.32057 -5.32545,2.93791 -17.38042,9.07375 -17.82701,9.07375 -0.15533,0 -0.36179,-0.0794 -0.4588,-0.17639 z m -46.610757,-1.36246 c -1.30969,-0.69526 -4.28625,-2.25651 -6.61459,-3.46944 -8.65859,-4.51063 -12.23812,-6.54671 -12.55704,-7.14262 -0.25906,-0.48405 0.29385,-1.60742 0.79114,-1.60742 0.13345,0 1.76381,0.87322 3.62302,1.94048 1.85921,1.06727 5.7021,3.16755 8.53976,4.66728 9.0003,4.75675 10.29911,5.60146 9.96227,6.47926 -0.26234,0.68363 -1.25638,0.45333 -3.74456,-0.86754 z m 2.8642,-3.02521 c -0.89454,-0.61847 -2.67884,-1.89346 -3.96511,-2.83333 -1.28627,-0.93987 -4.77946,-3.48678 -7.76263,-5.6598 -7.25635,-5.285713 -8.30101,-6.317221 -7.35542,-7.262811 0.60737,-0.607371 1.23565,-0.303847 4.13495,1.997604 1.60407,1.273307 6.31864,4.848577 10.47681,7.945037 7.4559,5.55217 8.28466,6.33862 7.14181,6.77718 -0.73591,0.28239 -1.0119,0.18277 -2.67041,-0.96388 z m 41.964257,0.70542 c -0.24722,-0.29789 -0.27002,-0.54651 -0.0789,-0.85989 0.26957,-0.4419 2.66448,-2.34977 5.38893,-4.29302 4.52964,-3.23083 6.02852,-4.33152 9.13721,-6.70981 1.88677,-1.443474 4.05463,-3.148518 4.81747,-3.788993 1.65209,-1.387086 2.58177,-1.465962 2.58177,-0.21904 0,0.625106 -0.31138,1.036288 -1.6029,2.116666 -2.73568,2.288447 -7.48968,5.875567 -11.49397,8.672767 -2.11005,1.47398 -4.71458,3.31455 -5.78784,4.09017 -2.10767,1.52315 -2.43061,1.63122 -2.96182,0.99115 z m -38.451247,-2.78181 c -0.38808,-0.30527 -2.83832,-2.89488 -5.44497,-5.75469 -2.60665,-2.85981 -6.35396,-6.926059 -8.32737,-9.036111 -1.9734,-2.110052 -3.66018,-4.105895 -3.74838,-4.435206 -0.18833,-0.703106 0.29121,-1.385627 0.97354,-1.385627 0.28449,0 1.91896,1.599332 4.0025,3.916468 1.9369,2.154057 5.82945,6.410541 8.65012,9.458856 6.13624,6.63147 6.08613,6.56462 5.44871,7.26895 -0.5902,0.65217 -0.68611,0.65016 -1.55415,-0.0326 z m 36.098027,-0.0948 c -0.40297,-0.48554 -0.33073,-0.59945 2.09151,-3.29782 7.87236,-8.769782 15.95513,-17.216114 16.47654,-17.217643 0.7099,-0.0021 1.08609,0.93122 0.67964,1.686121 -0.49526,0.919831 -8.40404,9.448432 -16.7751,18.089782 -1.12915,1.16561 -1.92216,1.4028 -2.47259,0.73956 z m -32.714987,-2.7239 c -0.43364,-0.29228 -4.249,-5.63514 -7.69514,-10.775937 -1.66038,-2.476879 -3.60736,-5.336853 -4.32661,-6.355499 -1.33142,-1.885606 -1.51417,-2.645803 -0.75103,-3.12394 0.71228,-0.446268 1.19083,-0.04645 2.69096,2.248239 0.79052,1.20924 2.21517,3.389243 3.16588,4.844451 1.76411,2.700256 5.98662,8.911826 7.39799,10.882916 0.47485,0.66315 0.748,1.33875 0.69424,1.71709 -0.0912,0.64177 -0.65723,0.91254 -1.17629,0.56268 z m 30.464067,-0.22824 c -0.22249,-0.2225 -0.40453,-0.47084 -0.40453,-0.55187 0,-0.33559 1.92604,-3.30516 7.25902,-11.191951 4.72882,-6.993329 5.7462,-8.347702 6.32282,-8.417204 0.55003,-0.0663 0.72129,0.053 0.85799,0.597672 0.144,0.573725 -0.59767,1.8322 -4.72668,8.02033 -5.46743,8.194023 -7.89264,11.559423 -8.49724,11.791433 -0.22377,0.0859 -0.58889,-0.0259 -0.81138,-0.24841 z m -26.956927,-2.03856 c -0.22555,-0.1719 -2.39486,-4.30115 -4.8207,-9.176094 -6.56158,-13.186147 -6.62498,-13.338955 -5.81356,-14.012379 0.85803,-0.712097 1.34002,2.31e-4 4.69297,6.935602 7.57407,15.666491 7.72564,16.038081 6.70207,16.430851 -0.19288,0.074 -0.53524,-0.006 -0.76078,-0.17798 z m 23.575827,0.0559 c -0.25466,-0.14434 -0.46302,-0.44104 -0.46302,-0.65934 0,-0.21829 1.59209,-3.69495 3.53797,-7.725912 1.94588,-4.030958 4.22422,-8.876826 5.06297,-10.768597 1.9679,-4.438485 2.41548,-4.953077 3.42769,-3.94087 0.55221,0.552214 0.56015,0.529589 -2.49838,7.11587 -3.97938,8.569266 -7.51903,15.528429 -8.08852,15.902529 -0.35914,0.23593 -0.65624,0.2591 -0.97871,0.0763 z m -3.89259,-2.06951 c -0.29198,-0.54558 -0.26357,-0.65538 3.46176,-13.380172 1.02247,-3.4925 2.06686,-6.885781 2.32085,-7.540625 0.50165,-1.29333 1.26443,-1.668119 1.88157,-0.924507 0.29797,0.359035 0.17852,1.039535 -0.78019,4.444538 -2.02534,7.19337 -5.17206,17.018236 -5.63068,17.580486 -0.39391,0.48291 -0.94063,0.40451 -1.25331,-0.17972 z m -16.069017,-0.0721 c -0.6531,-0.83091 -6.7506,-20.419412 -6.64358,-21.342843 0.0907,-0.782433 0.98839,-1.091642 1.47324,-0.507441 0.30149,0.363282 2.42311,6.898085 4.57726,14.098451 0.69657,2.328334 1.46313,4.79271 1.70345,5.476393 0.54704,1.55624 0.44739,2.43494 -0.28805,2.54002 -0.30378,0.0434 -0.67382,-0.0757 -0.82232,-0.26458 z m 3.94493,-0.80652 c -0.14995,-0.1819 -0.46732,-1.69995 -0.70527,-3.373438 -0.23796,-1.673489 -0.72003,-4.650052 -1.07128,-6.614583 -0.35124,-1.964531 -0.95908,-5.80058 -1.35075,-8.524552 -0.58087,-4.039813 -0.65015,-5.027352 -0.37589,-5.357813 0.47464,-0.57191 0.99116,-0.503148 1.42855,0.190178 0.20655,0.327422 0.69373,2.738438 1.08261,5.357813 0.38889,2.619375 1.00289,6.667499 1.36445,8.995833 1.190257,7.664892 1.299497,8.771502 0.912027,9.238382 -0.4181,0.50378 -0.913807,0.53781 -1.284447,0.0882 z m 8.278117,-0.0331 c -0.44611,-0.32621 -0.41396,-0.74361 0.64624,-8.39027 0.61363,-4.42584 1.33488,-9.630863 1.60277,-11.566717 0.50955,-3.68221 0.78226,-4.362661 1.69609,-4.232095 0.50791,0.07257 0.54928,0.238461 0.51449,2.063289 -0.0419,2.197311 -2.14266,17.598132 -2.8966,21.235013 -0.19435,0.93751 -0.92759,1.3554 -1.56299,0.89078 z m -4.21937,-0.50305 c -0.36725,-0.5605 -0.40809,-2.245358 -0.34759,-14.341284 0.0636,-12.722231 0.10178,-13.727133 0.53157,-13.99819 0.33768,-0.212972 0.58835,-0.212972 0.92604,0 0.4298,0.271069 0.46758,1.267588 0.52657,13.889271 0.0646,13.825103 0.013,14.678713 -0.90658,14.981843 -0.17263,0.0569 -0.50113,-0.18233 -0.73001,-0.53164 z"
       id="path1"
       sodipodi:nodetypes="sscssssssssssssccssssscsssssssssssssssssssscsssssssssssssssssssssssssssssscssscssssssssssssssssssssssssssssssscccssssssscccssssssscsssssssssssssssssssssssscssssssssssssssssssssscssssssssssssssssssssssssscssss" /><path
       id="rect2"
       style="fill:#cf8a30;stroke-width:0.841509"
       d="m 81.177563,80.968241 c -0.28073,13.74086 34.913847,26.369279 63.458647,24.135469 -15.85236,-3.90969 -40.84425,-9.323649 -63.458647,-24.135469 z m 48.877107,1.22008 c -0.28073,13.74086 23.20496,20.578009 46.8974,20.865389 -15.85235,-3.909699 -24.283,-6.053559 -46.8974,-20.865389 z m -84.476487,6.45697 c -0.19716,9.65011 14.08877,15.578619 30.81672,18.355469 h -63.74546 c -2.15345,0 -2.19152,3.3817 0,3.3817 H 197.1219 c 2.41922,0 2.5349,-3.3817 0,-3.3817 H 90.048333 c -12.87731,-2.94209 -25.71972,-6.07444 -44.47015,-18.355469 z" /><path
       id="path3"
       style="fill:#2d1c00;fill-opacity:1;stroke-width:1.45227"
       d="m 288.95148,76.858969 c -0.3129,-0.03979 -0.66231,0.165051 -1.04167,0.622154 -0.38442,0.463234 -1.55792,0.57638 -5.97686,0.57638 -5.20412,0 -5.51232,0.0424 -5.74871,0.787248 -0.13739,0.432808 -0.0677,1.005688 0.15461,1.273574 0.6345,0.76455 0.6535,12.957914 0.0217,13.96951 -0.41995,0.671953 -0.42081,0.919799 -0.004,1.421414 h 7.5e-4 c 0.42199,0.508457 1.51508,0.606253 6.70108,0.601896 3.40835,-0.0029 6.4158,-0.144791 6.68305,-0.314461 0.60556,-0.384373 1.46175,-4.318806 1.12875,-5.186584 -0.38733,-1.009389 -1.55268,-0.745583 -2.26948,0.514077 -0.65031,1.143057 -0.6766,1.150493 -4.08562,1.150493 -3.38997,0 -3.43395,-0.01163 -3.62261,-0.99889 -0.38009,-1.988413 0.0182,-2.459341 2.07961,-2.459341 1.27857,0 1.95631,0.176248 2.09835,0.546345 0.29996,0.781731 1.31041,1.078417 1.92799,0.565865 0.63638,-0.528221 0.73331,-5.389626 0.12986,-6.517202 -0.55058,-1.028762 -1.45506,-0.929064 -1.97753,0.217638 -0.38019,0.834433 -0.6851,0.960622 -2.3205,0.960622 h -1.88296 l 0.11934,-1.44092 0.11933,-1.440931 2.96443,-0.111824 c 2.84713,-0.107474 3.01343,-0.06549 4.18769,1.056675 0.99336,0.949309 1.3282,1.080798 1.78316,0.703205 0.43478,-0.360816 0.50163,-0.979108 0.29943,-2.766279 -0.26827,-2.371216 -0.78034,-3.642989 -1.46868,-3.730662 z m 30.78858,1.013165 c -5.27216,0.336653 -8.55687,5.783847 -4.46914,9.223446 0.64965,0.546635 2.28088,1.49198 3.62483,2.101355 1.34395,0.609375 2.44359,1.343572 2.44359,1.631559 0,1.767405 -3.28393,2.029453 -4.67777,0.372987 -0.49683,-0.590466 -1.12501,-1.211226 -1.39591,-1.378645 -1.64532,-1.016868 -2.32918,3.586278 -0.74672,5.025992 0.47536,0.432488 1.38256,0.976742 2.01655,1.209788 h 7.5e-4 c 2.89496,1.063095 7.35653,-0.232058 8.92851,-2.59218 1.08475,-1.628495 1.09891,-2.924317 0.051,-4.643245 -1.02086,-1.674618 -1.45626,-2.019054 -4.62822,-3.657861 -1.41081,-0.728896 -2.66627,-1.488277 -2.78956,-1.687833 -0.42278,-0.68408 0.97809,-1.57752 2.47359,-1.57752 1.21562,0 1.63466,0.21164 2.31976,1.173758 0.56834,0.79817 1.09966,1.136405 1.65931,1.056676 0.72536,-0.103403 0.83639,-0.39955 0.93661,-2.495358 0.13051,-2.72794 0.0498,-2.814017 -3.3817,-3.573804 -0.81857,-0.181244 -1.61235,-0.237215 -2.36553,-0.189115 z M 335.91,78.004295 c -4.18209,0.126198 -8.22733,3.550262 -8.19228,8.890975 0.0242,3.698207 1.89546,6.944985 4.84286,8.403926 3.52152,1.743109 8.01677,0.488909 10.2321,-2.855594 2.44848,-3.696521 2.43001,-7.12726 -0.0586,-10.806222 -1.75647,-2.596727 -4.3149,-3.708806 -6.82415,-3.633085 z m -40.26271,0.0533 c -2.40786,0 -2.87858,0.348925 -2.3325,1.72911 0.4537,1.146629 0.41594,12.458417 -0.0473,14.12637 -0.22089,0.795352 -0.29617,1.616672 -0.16735,1.825175 0.13766,0.222679 2.67066,0.378987 6.13969,0.378987 4.72108,0 6.02097,-0.114598 6.47891,-0.572618 0.82295,-0.822932 1.28648,-5.554198 0.58763,-5.996358 -0.73453,-0.464743 -0.93319,-0.343956 -1.96102,1.189515 -0.88553,1.321164 -0.95377,1.346464 -3.86572,1.45669 l -2.96366,0.112551 v -6.087174 c 0,-4.021555 0.14771,-6.23491 0.43529,-6.52246 0.23946,-0.239407 0.3312,-0.706706 0.20412,-1.037926 -0.17382,-0.452994 -0.79568,-0.601881 -2.5081,-0.601881 z m 53.17777,0 c -2.5046,0 -2.89201,0.09048 -2.88186,0.672433 0.006,0.369852 0.2661,1.00817 0.57638,1.418409 0.89309,1.180803 0.80831,12.554661 -0.10491,14.100853 -0.58577,0.991745 -0.59777,1.177026 -0.0961,1.494203 0.31502,0.199166 3.36178,0.364841 6.77012,0.367747 7.21541,0.0073 7.13969,0.04415 7.37201,-3.604578 0.11594,-1.820804 0.0109,-2.494224 -0.44804,-2.875098 -0.77654,-0.644477 -1.28453,-0.301653 -1.96401,1.324605 l -0.55087,1.318593 h -3.28561 -3.28563 v -5.829766 c 0,-4.836383 0.10601,-5.946838 0.62292,-6.517945 1.20712,-1.333856 0.42633,-1.869456 -2.72428,-1.869456 z m -86.13303,0.0044 c -4.48311,-0.0044 -5.3245,0.412677 -4.22296,2.093845 0.86934,1.326814 0.91661,12.351473 0.0578,13.486949 -0.697,0.921453 -0.74751,1.962676 -0.10795,2.220689 0.26417,0.106602 2.14398,0.20769 4.17793,0.224391 5.78128,0.04749 8.63134,-1.320425 10.47977,-5.02974 1.65986,-3.330908 1.24162,-6.686173 -1.1865,-9.522888 -2.23166,-2.607197 -4.51312,-3.46889 -9.19796,-3.473246 z m 73.13916,3.475497 c 0.86256,-0.03455 1.72702,0.155046 2.33175,0.578615 2.82182,1.976489 2.62381,8.590572 -0.30094,10.051982 -2.17689,1.087727 -4.25437,0.318383 -5.37197,-1.990284 -1.30035,-2.686187 -0.81658,-6.432767 1.01765,-7.875574 0.59978,-0.471786 1.46095,-0.730232 2.32351,-0.764739 z m -72.51325,0.363228 1.44092,0.0015 c 2.68291,0.0029 5.09129,2.434087 5.09129,5.140069 0,1.93777 -1.1894,4.134655 -2.54491,4.701028 -0.70013,0.292534 -1.88398,0.532101 -2.63044,0.532101 h -1.35689 v -5.187354 z"
       sodipodi:nodetypes="ssssccccssscscssssssccccssssscsssssscccsscssccscccssssscsscscssccsssccssssscscccccscsssccssssssccssscccssscccc" /><path
       style="fill:#cf8a30;fill-opacity:1;stroke-width:1.07721"
       d="m 227.86894,93.037508 c -0.23056,-0.600812 0.24846,-1.729897 1.24874,-2.943413 1.01152,-1.227142 1.05124,-1.471776 0.23895,-1.471776 -0.74695,0 -5.27498,2.254012 -6.9624,3.465825 -1.35953,0.976348 -2.11655,0.925212 -2.11655,-0.142956 0,-0.686665 1.80247,-2.609661 3.09398,-3.300861 0.33614,-0.179893 0.61115,-0.432585 0.61115,-0.561548 0,-0.128963 -0.76011,-0.703631 -1.68912,-1.277061 -2.70429,-1.669184 -4.98307,-5.42008 -4.00719,-6.595927 0.69325,-0.835309 1.45907,-0.351631 2.71509,1.714773 1.41205,2.323125 3.10673,3.643962 5.27076,4.108054 3.0784,0.660209 3.69768,0.204089 2.39473,-1.763774 -0.52219,-0.788655 -0.80414,-1.597658 -0.81699,-2.34428 -0.0177,-1.024951 0.056,-1.148809 0.72981,-1.226916 0.66568,-0.07712 0.87725,0.145843 1.89276,1.995082 1.91252,3.482651 0.92618,3.209223 11.9187,3.304147 9.11614,0.07875 9.52665,0.105567 9.81336,0.641272 0.20011,0.373908 0.20579,0.733718 0.0171,1.086222 -0.38258,0.714867 -2.79573,0.897948 -11.83535,0.897948 h -7.16621 l -1.07335,1.407479 c -1.29856,1.702771 -3.17434,3.437709 -3.71679,3.437709 -0.21791,0 -0.47046,-0.193499 -0.56121,-0.429999 z m -21.1258,-4.646378 c -1.05163,-0.247887 -1.21802,-0.908871 -0.41255,-1.638915 0.52904,-0.479487 1.13015,-0.564704 4.54956,-0.644913 3.68696,-0.0865 3.97836,-0.05408 4.5377,0.505295 0.47685,0.476869 0.53674,0.711678 0.29615,1.161217 -0.2462,0.460044 -0.6006,0.56381 -1.93034,0.5652 -0.89585,8.98e-4 -2.65484,0.05817 -3.90888,0.127273 -1.25405,0.06904 -2.66328,0.03523 -3.13164,-0.07519 z"
       id="path4"
       sodipodi:nodetypes="ssssssssssssssssssscsssssssssscss" /><path
       id="path5"
       style="fill:#2d1c00;fill-opacity:1;stroke-width:1.19872"
       d="m 273.38131,34.523986 c -0.42191,-0.0011 -0.91365,0.210844 -1.46068,0.641137 -0.75797,0.596196 -1.28702,0.634327 -8.80247,0.634327 -7.59291,0 -8.02442,-0.032 -8.56956,-0.634327 -0.7222,-0.797965 -2.27329,-0.847233 -2.49952,-0.07924 -0.0899,0.305266 -0.31463,1.417896 -0.49928,2.472255 -0.18466,1.054347 -0.62522,2.960758 -0.97874,4.23646 -0.69276,2.49991 -0.61403,3.331655 0.36363,3.854884 0.93662,0.501257 1.76571,0.08811 2.78321,-1.386968 1.48927,-2.158897 2.02033,-2.490931 4.2724,-2.671711 l 2.04482,-0.164164 0.21742,2.657469 c 0.11951,1.461589 0.17001,5.754605 0.11149,9.540251 l -0.10653,6.883405 -1.21599,1.112534 c -1.18494,1.084782 -1.22743,1.309722 -0.44044,2.327305 0.22009,0.284612 1.59404,0.396452 4.86708,0.396452 4.13712,0 4.61863,-0.05885 5.19414,-0.634327 0.85316,-0.853166 0.8074,-1.087408 -0.39645,-2.028715 l -1.03078,-0.805912 -0.17345,-8.493996 c -0.0953,-4.671692 -0.10992,-9.044388 -0.0328,-9.716786 l 0.14,-1.222193 2.15074,0.121419 c 2.37859,0.134401 3.24697,0.64876 3.967,2.348978 0.66136,1.561658 1.24491,1.894951 2.21023,1.262446 0.44634,-0.292452 0.89418,-0.747631 0.99547,-1.011566 0.10127,-0.263934 -0.18425,-1.93313 -0.63434,-3.708688 -0.45006,-1.775557 -0.90885,-3.655272 -1.01961,-4.177615 -0.24542,-1.158024 -0.75378,-1.751272 -1.45697,-1.753058 z m -48.58645,0.0096 c -0.42718,0.03021 -0.90169,0.238786 -1.40059,0.631223 -0.75789,0.596196 -1.28642,0.634328 -8.7876,0.634328 -8.1565,0 -8.74239,0.08295 -8.74239,1.237667 0,0.262077 0.42625,0.917034 0.94777,1.455103 l 0.94838,0.978121 0.0824,10.556155 0.0829,10.556156 -1.03388,0.849894 c -1.1422,0.939209 -1.47456,2.418611 -0.47263,2.568894 0.39406,0.05909 4.37477,0.327275 10.61748,0.333269 l 10.06306,0.0096 0.46583,-0.713622 c 0.25622,-0.392486 0.71469,-2.160047 1.01901,-3.92797 0.52248,-3.036828 0.52272,-3.260222 0.01,-4.043814 -0.38836,-0.592684 -0.81785,-0.829443 -1.50529,-0.829443 -0.83378,0 -1.04525,0.188151 -1.58705,1.412981 -1.06468,2.406864 -1.02725,2.392959 -6.33951,2.392959 h -4.73451 v -2.978966 c 0,-3.261817 0.0639,-3.36891 2.00829,-3.35932 1.2588,0.006 1.58068,0.22012 2.2257,1.47927 0.59502,1.161512 1.4883,1.555196 2.4103,1.061742 0.91084,-0.487723 1.06266,-1.437314 0.90999,-5.719434 -0.14683,-4.118147 -0.5356,-5.072737 -2.06466,-5.072737 -0.59405,0 -0.88695,0.307843 -1.37395,1.443957 l -0.61883,1.443954 -1.66944,-0.09602 -1.66882,-0.09602 v -2.537297 -2.537285 l 3.91992,-0.08918 c 4.28369,-0.09757 4.55286,-0.01083 5.2691,1.703515 0.81274,1.945141 2.7543,2.096899 3.21745,0.251492 0.2605,-1.037889 -0.14088,-6.595064 -0.55503,-7.684355 -0.34947,-0.919203 -0.93081,-1.364816 -1.6428,-1.314482 z m 185.07868,0.336985 c -0.43683,0.04998 -0.87612,0.267423 -1.13051,0.630599 -0.44869,0.640573 -0.4949,0.642887 -2.29508,0.119513 -7.88044,-2.2909 -15.30242,5.61318 -11.25862,11.989574 1.11662,1.76073 2.23536,2.618523 5.88793,4.517693 3.63538,1.890239 3.96452,2.195602 3.96452,3.678335 0,1.774048 -1.18382,2.619674 -3.41197,2.436941 -1.88161,-0.154323 -2.91938,-0.907336 -3.90877,-2.836486 -0.91778,-1.789559 -2.38069,-1.972124 -3.10285,-0.387164 -0.49871,1.094614 -0.4514,4.369053 0.0817,5.645103 0.71767,1.717636 2.79374,3.050866 5.74298,3.688861 3.22198,0.696996 7.80706,-0.628275 9.72361,-2.811085 1.36137,-1.550522 2.48042,-4.084559 2.48402,-5.625288 0.004,-2.0773 -0.84316,-4.37948 -2.13836,-5.805538 -0.73448,-0.808658 -2.46198,-1.988571 -4.51894,-3.086133 -3.47615,-1.854817 -4.3508,-2.502211 -4.4539,-3.297369 -0.15828,-1.221306 0.0749,-1.643711 1.15653,-2.095617 1.9808,-0.827633 4.26032,0.01355 5.62466,2.075178 0.60864,0.919695 1.07408,1.289081 1.62359,1.289081 1.4482,0 1.706,-0.901655 1.52387,-5.333519 -0.0909,-2.212323 -0.30692,-4.201134 -0.48007,-4.419193 -0.24317,-0.30619 -0.67758,-0.42358 -1.11441,-0.373534 z M 246.49628,35.28932 c -0.098,0.0024 -0.19326,0.02518 -0.28743,0.06881 -0.29751,0.13783 -1.07599,0.224402 -1.73013,0.192036 -5.21149,-0.258085 -6.12645,-0.203747 -7.5487,0.447866 -3.37878,1.548005 -5.36655,4.449606 -5.37255,7.841075 -0.005,3.497246 1.78313,5.689407 6.62633,8.119839 3.31969,1.665911 4.15407,2.447561 4.15407,3.892044 0,1.687104 -1.81437,2.732413 -4.02336,2.318003 -1.1353,-0.212977 -1.98738,-0.942938 -3.92364,-3.360555 -1.46525,-1.8295 -2.83649,-0.541438 -2.83649,2.66429 0,3.298929 2.07068,5.723462 5.70891,6.685173 2.23212,0.590046 3.56064,0.603171 5.62156,0.05454 3.09139,-0.822994 4.92961,-2.393726 6.2943,-5.377499 1.08446,-2.371059 0.96314,-4.727925 -0.36982,-7.17702 -1.17502,-2.158897 -2.42976,-3.207058 -5.93378,-4.956892 -3.61217,-1.803836 -4.02646,-2.162314 -4.02646,-3.486301 0,-1.299162 0.66813,-1.710791 2.7541,-1.695447 1.89548,0.0139 2.82447,0.512201 3.89328,2.089419 0.99853,1.473467 1.9941,1.730546 2.67544,0.690702 0.39117,-0.597059 0.44506,-1.391582 0.28556,-4.207967 -0.17516,-3.093047 -0.27913,-3.554831 -0.9521,-4.227793 -0.39457,-0.39462 -0.71481,-0.580073 -1.00909,-0.574236 z m 130.63589,0.01083 c -0.3135,0.03369 -0.72705,0.246996 -1.13484,0.597778 -0.9848,0.847089 -0.99352,0.814448 0.81334,3.073126 l 0.63433,0.792906 -3.28498,9.51485 c -4.0764,11.807788 -3.74644,11.028763 -5.10927,12.068246 l -1.14289,0.871579 -0.93849,-0.899449 -0.9391,-0.900072 V 49.856161 39.293198 l 0.95149,-0.848036 c 1.09415,-0.974883 1.22126,-1.844807 0.33823,-2.317392 -0.88552,-0.473915 -8.99066,-0.429418 -9.47212,0.05203 -0.61449,0.614488 -0.44085,1.425987 0.44354,2.070228 0.55681,0.405599 0.91291,1.057943 1.09643,2.008889 0.35752,1.850442 0.3638,17.875055 0.009,19.406949 -0.15542,0.669378 -0.71449,1.599717 -1.27917,2.127215 -0.8316,0.77682 -0.94675,1.043607 -0.67149,1.55793 0.18258,0.341168 0.51154,0.692945 0.73158,0.781758 h 6.1e-4 c 0.22075,0.08858 2.26372,0.172676 4.54124,0.186461 3.08171,0.01858 4.29751,-0.08894 4.74937,-0.419372 0.52054,-0.380631 0.69796,-0.380631 1.24139,0 0.98158,0.687585 7.69776,0.62379 8.47603,-0.08055 0.86302,-0.781015 0.71132,-1.426071 -0.59159,-2.519952 l -1.17077,-0.983695 0.56308,-1.474307 0.56309,-1.47493 h 3.13692 3.13755 l 0.4838,0.935997 c 0.70964,1.372296 0.6037,2.527587 -0.30911,3.373561 -0.91507,0.848047 -0.99858,1.464993 -0.29423,2.169338 0.40877,0.408728 1.35319,0.498668 5.2536,0.498668 2.6156,0 5.01539,-0.138896 5.33227,-0.308491 1.12232,-0.600644 1.03469,-1.289572 -0.3215,-2.529242 -1.1458,-1.047371 -1.51367,-1.785112 -3.18213,-6.388453 -2.34913,-6.481414 -4.60678,-13.382776 -4.8999,-14.978454 -0.19417,-1.056948 -0.10795,-1.329346 0.68017,-2.151992 0.70601,-0.736938 0.83134,-1.055822 0.5736,-1.464394 -0.64523,-1.022917 -1.2595,-1.174806 -3.03161,-0.750159 -1.61778,0.387665 -4.04707,0.197956 -5.70024,-0.444774 -0.0783,-0.03045 -0.17178,-0.03908 -0.27628,-0.02793 z m -29.93708,0.03536 c -3.43536,-0.06174 -7.29402,1.496531 -9.87972,4.082221 -2.12487,2.124878 -3.83875,5.531452 -4.31203,8.57142 -1.15679,7.430275 4.40051,15.129374 11.77772,16.31709 0.95942,0.154467 1.81571,0.296252 1.90298,0.315312 0.0873,0.01906 1.06639,-0.11232 2.17615,-0.292392 2.01979,-0.327742 4.68269,-1.457238 5.35952,-2.272775 0.19807,-0.238642 0.45963,-1.74945 0.58106,-3.358074 0.19357,-2.564173 0.15033,-3.002821 -0.34999,-3.555683 -0.80481,-0.889307 -1.12878,-0.803167 -2.54844,0.675203 -2.25489,2.348104 -4.54076,2.774717 -7.35419,1.372716 -3.96604,-1.976355 -5.37992,-7.768145 -2.93809,-12.036036 1.18131,-2.064702 2.98761,-3.26883 5.27902,-3.519135 2.14867,-0.234709 3.50981,0.56394 4.55238,2.671723 0.4399,0.889331 0.96237,1.779441 1.16086,1.977926 0.52488,0.524884 1.67011,0.05215 1.82616,-0.753889 0.0737,-0.380869 0.45042,-2.081435 0.8375,-3.77868 0.55645,-2.439985 0.62383,-3.18197 0.32088,-3.547004 -0.57885,-0.697452 -4.91864,-2.409813 -6.95029,-2.742339 -0.46853,-0.07672 -0.95072,-0.118794 -1.44148,-0.127604 z m -62.02614,0.133179 c -1.01936,-0.119393 -1.49549,0.177349 -1.94263,1.012811 -0.29802,0.556866 -0.19253,0.817168 0.70557,1.74378 l 1.05554,1.089613 -1.88251,5.615997 c -1.59266,4.750916 -4.66819,13.487161 -5.40539,15.354468 -0.11734,0.297235 -0.70033,0.82779 -1.29527,1.178823 -1.13609,0.670301 -1.44155,1.759184 -0.70123,2.499502 h 6.3e-4 c 0.25574,0.255747 1.69176,0.380354 4.37706,0.380354 2.6853,0 4.12072,-0.124607 4.37646,-0.380354 0.67756,-0.677565 0.42738,-1.763523 -0.57051,-2.474101 -1.03482,-0.736854 -1.11797,-1.132012 -0.6176,-2.93375 l 0.33017,-1.18936 h 3.49002 3.49002 l 0.45962,1.100163 c 0.63057,1.509178 0.57613,2.502066 -0.17467,3.181526 -0.81364,0.735752 -0.81656,1.941917 -0.005,2.375613 0.38672,0.206947 2.47894,0.302845 5.43262,0.249023 4.54985,-0.08295 4.8286,-0.124139 5.26725,-0.785475 0.43395,-0.654225 0.38055,-0.779168 -0.84433,-1.979783 -1.60037,-1.568682 -1.89857,-2.254986 -5.38431,-12.387262 -3.47879,-10.112065 -3.41862,-9.818258 -2.22879,-10.958182 1.09487,-1.048965 1.15251,-1.432855 0.32706,-2.179874 -0.54668,-0.494737 -0.84165,-0.511495 -2.93374,-0.16787 -1.94274,0.319088 -2.61915,0.304009 -4.10514,-0.0917 -0.47943,-0.127663 -0.87993,-0.214163 -1.2197,-0.253984 z m 22.19199,0.330799 c -3.60423,0 -4.28063,0.882414 -2.11358,2.757813 0.44245,0.382896 0.89523,1.179722 1.00599,1.770404 0.11088,0.590681 0.15479,5.389882 0.0972,10.66519 l -0.10467,9.591653 -1.03387,0.848658 c -1.06354,0.873664 -1.31619,1.861614 -0.64734,2.530477 0.48053,0.480531 7.95497,0.524513 8.83779,0.05203 0.93359,-0.499651 0.73641,-1.576139 -0.49618,-2.705166 l -1.11007,-1.016528 v -5.296327 c 0,-3.269452 0.11736,-5.255757 0.30664,-5.190426 0.16857,0.05814 2.88509,3.174477 6.0372,6.924904 3.15213,3.75044 6.11829,7.067805 6.59165,7.372148 1.12305,0.722025 1.82667,0.701312 2.60543,-0.07743 0.61178,-0.61184 0.63432,-1.057104 0.63432,-12.564432 V 39.532268 l 1.26927,-1.160243 c 1.21027,-1.106287 1.24638,-1.193338 0.77494,-1.86642 -0.47043,-0.671583 -0.70667,-0.706179 -4.85344,-0.706179 -4.3748,0 -5.1198,0.174043 -5.1198,1.194933 0,0.238486 0.49953,0.904675 1.11006,1.480493 l 1.11006,1.046879 v 5.142731 c 0,2.992918 -0.12209,5.098916 -0.29177,5.037421 -0.16036,-0.05814 -2.59716,-2.889013 -5.41528,-6.290577 -2.81813,-3.401551 -5.47804,-6.505784 -5.91085,-6.898269 -0.67591,-0.61305 -1.1389,-0.713611 -3.28374,-0.713611 z m -20.34168,11.329163 c 0.25074,-0.250749 1.37295,2.411983 1.8082,4.290978 0.20194,0.87183 0.20087,0.87219 -1.57715,0.87219 -1.51698,0 -1.77846,-0.08619 -1.77846,-0.584773 0,-0.715887 1.18187,-4.212858 1.54741,-4.578395 z m 92.51641,0.502995 c 0.28651,-0.09554 1.71912,3.457819 1.71899,4.263719 -8e-5,0.402147 -2.87113,0.591007 -3.24843,0.213708 -0.24687,-0.246864 1.15567,-4.352832 1.52944,-4.477427 z"
       sodipodi:nodetypes="cssssscscscccccsscccccccssssccccssscccccscccccssscscscssccccccccsscccscssssssssscsscssscscccscscsssssscsssscscsccccsscccccccccsssccsscccscscccccccssssssssssscccssssssssssssssssssccscccssccsssccccccscsssssssccsscsccssccscsscscssssccssscsssssssssss" /><path
       style="fill:#cf8a30;fill-opacity:1;stroke-width:1.07721"
       d="m 387.34369,90.989136 -2.38933,-2.50932 h -9.01872 c -4.96028,0 -9.17902,-0.103735 -9.37497,-0.230575 -0.54944,-0.355609 -0.42508,-1.565106 0.19503,-1.896983 0.34653,-0.185462 3.88454,-0.295036 9.526,-0.295036 h 8.97471 l 0.87731,-0.73821 c 0.48252,-0.406019 1.33023,-1.548106 1.8838,-2.537962 1.15832,-2.071295 1.58712,-2.504267 2.23419,-2.25596 0.78052,0.299516 0.55384,1.853215 -0.5339,3.659603 -0.54864,0.911123 -0.99755,1.705164 -0.99755,1.76455 0,0.05935 0.86573,0.107883 1.92383,0.107753 3.45806,-3.99e-4 5.89873,-1.579529 7.57513,-4.901148 0.481,-0.953058 0.77773,-1.226357 1.33145,-1.226357 0.61514,0 0.72446,0.143356 0.7998,1.048758 0.16325,1.962034 -1.98596,4.933938 -4.4931,6.21298 -0.63354,0.323206 -1.15187,0.645225 -1.15187,0.7156 0,0.07034 0.67333,0.558693 1.4963,1.085166 2.27238,1.453678 3.28784,3.905487 1.61753,3.905487 -0.33507,0 -1.07657,-0.367479 -1.64777,-0.816619 -2.50215,-1.967453 -7.16628,-3.880475 -7.16628,-2.939298 0,0.128834 0.3812,0.738048 0.8471,1.3538 0.95565,1.263035 1.12256,2.526524 0.3718,2.814612 -0.36642,0.140617 -1.09794,-0.448776 -2.88049,-2.320841 z m 16.28186,-2.598632 c -0.94045,-0.133789 -1.15671,-1.18331 -0.37436,-1.816826 0.54357,-0.440157 1.19218,-0.516456 4.39045,-0.516456 2.93516,0 3.89065,0.09662 4.3861,0.443679 0.69212,0.484787 0.83873,1.390878 0.28082,1.735682 -0.34048,0.210432 -7.40537,0.335678 -8.68301,0.153921 z"
       id="path6"
       sodipodi:nodetypes="scsssscssssssssssssssssssssssss" /></g></svg>
